<?xml version="1.0" encoding="UTF-8" standalone="no"?>
<!-- Generator: Adobe Illustrator 16.0.0, SVG Export Plug-In . SVG Version: 6.00 Build 0)  -->

<svg
   version="1.1"
   id="Vrstva_1"
   x="0px"
   y="0px"
   width="180"
   height="180"
   viewBox="-140 -96.046 180 180"
   enable-background="new -140 -96.046 480 329.301"
   xml:space="preserve"
   sodipodi:docname="logo-a.svg"
   inkscape:version="1.2.1 (9c6d41e410, 2022-07-14)"
   xmlns:inkscape="http://www.inkscape.org/namespaces/inkscape"
   xmlns:sodipodi="http://sodipodi.sourceforge.net/DTD/sodipodi-0.dtd"
   xmlns="http://www.w3.org/2000/svg"
   xmlns:svg="http://www.w3.org/2000/svg"><defs
   id="defs51" /><sodipodi:namedview
   id="namedview49"
   pagecolor="#ffffff"
   bordercolor="#000000"
   borderopacity="0.25"
   inkscape:showpageshadow="2"
   inkscape:pageopacity="0"
   inkscape:pagecheckerboard="true"
   inkscape:deskcolor="#d1d1d1"
   showgrid="false"
   inkscape:zoom="2.5208333"
   inkscape:cx="180.49587"
   inkscape:cy="164.6281"
   inkscape:window-width="2560"
   inkscape:window-height="1377"
   inkscape:window-x="5112"
   inkscape:window-y="-8"
   inkscape:window-maximized="1"
   inkscape:current-layer="Vrstva_1" />
<g
   id="g46"
   transform="translate(-282.04959,-35.305785)">
	<path
   fill="#ffffff"
   d="m 318.574,21.661 c -0.195,-0.36 -0.414,-0.688 -0.639,-1.003 -0.215,-0.267 -0.457,-0.563 -0.684,-0.787 -0.924,-0.919 -1.805,-1.448 -2.602,-1.863 -1.602,-0.818 -3.037,-1.249 -4.432,-1.62 -2.777,-0.698 -5.402,-1.063 -8.016,-1.321 -2.609,-0.258 -5.186,-0.41 -7.752,-0.509 -5.123,-0.201 -10.199,-0.189 -15.262,-0.096 -5.063,0.098 -10.104,0.29 -15.141,0.539 -4.344,0.203 -8.674,0.516 -13.008,0.834 l 0.018,-0.67 0.568,-25.637 0.369,-25.645 0.291,-19.508 -8.746,17.332 -9.641,19.106 -9.521,19.17 -9.502,19.181 c -8.631,0.954 -17.25,1.941 -25.848,3.097 -9.955,1.294 -34.701,2.739 -44.611,4.321 l 44.854,-1.72 c 7.805,-0.398 15.607,-0.83 23.404,-1.207 l -7.199,14.739 -9.359,19.254 -9.238,19.314 c -3.104,6.432 -6.092,12.914 -9.146,19.369 -3.049,6.453 -5.99,12.961 -8.99,19.439 3.563,-6.186 7.186,-12.34 10.699,-18.559 3.516,-6.211 7.09,-12.395 10.555,-18.633 l 10.453,-18.688 7.461,-13.528 13.035,-23.098 c 6.715,-0.288 13.43,-0.586 20.139,-0.813 l -0.537,18.086 c -0.283,8.543 -0.404,17.089 -0.617,25.637 l -0.182,7.525 6.92,-2.828 c 4.771,-1.951 9.369,-3.959 13.998,-6.055 4.611,-2.091 9.193,-4.264 13.74,-6.516 9.096,-4.51 18.029,-9.405 26.631,-15.099 4.295,-2.873 8.525,-5.901 12.494,-9.518 1.008,-0.879 1.963,-1.866 2.928,-2.829 0.457,-0.502 0.375,-0.38 0.854,-0.966 0.361,-0.454 0.652,-0.886 0.939,-1.376 0.563,-0.97 1.178,-2.435 1.049,-4.289 -0.052,-0.902 -0.347,-1.8 -0.726,-2.562 z m -76.494,-32.383 -0.768,25.636 -0.053,1.688 c -5.83,0.485 -11.65,1.017 -17.463,1.61 l 18.422,-32.653 z m 65.567,37.805 c -3.506,3.07 -7.512,5.826 -11.602,8.439 -4.102,2.615 -8.369,5.049 -12.707,7.378 -4.35,2.318 -8.736,4.599 -13.182,6.76 -4.457,2.168 -8.951,4.266 -13.477,6.278 -2.217,0.987 -4.453,1.962 -6.684,2.911 0.184,-6.017 0.377,-12.032 0.492,-18.052 l 0.416,-18.621 c 4.453,-0.112 8.912,-0.166 13.361,-0.234 4.986,-0.065 9.969,-0.074 14.928,0.012 4.965,0.087 9.92,0.261 14.807,0.626 4.84,0.375 9.791,0.917 14.008,2.039 0.611,0.174 1.191,0.37 1.697,0.572 -0.665,0.64 -1.331,1.279 -2.057,1.892 z"
   id="path44" />
</g>
</svg>
