<?xml version="1.0" encoding="utf-8"?>
<!-- Generator: Adobe Illustrator 16.0.0, SVG Export Plug-In . SVG Version: 6.00 Build 0)  -->
<!DOCTYPE svg PUBLIC "-//W3C//DTD SVG 1.1//EN" "http://www.w3.org/Graphics/SVG/1.1/DTD/svg11.dtd">
<svg version="1.1" id="Vrstva_1" xmlns="http://www.w3.org/2000/svg" xmlns:xlink="http://www.w3.org/1999/xlink" x="0px" y="0px"
	 width="480px" height="329.301px" viewBox="-140 -96.046 480 329.301" enable-background="new -140 -96.046 480 329.301"
	 xml:space="preserve">
<g>
	<path fill="#FFFFFF" d="M124.494,85.964h-0.27l-18.268-52.326H90.796v65.779h9.762V67.426c0-7.135-0.255-14.784-0.764-22.943h0.358
		l19.078,54.935h9.492l19.754-54.843h0.357c-0.119,1.108-0.262,4.289-0.426,9.536c-0.164,5.25-0.246,9.509-0.246,12.778v32.528
		h10.346V33.637h-15.207L124.494,85.964z"/>
	<path fill="#FFFFFF" d="M129.528,165.106h13.633v16.961c-3.959,0.869-7.68,1.307-11.16,1.307c-6.898,0-12.186-2.094-15.859-6.277
		s-5.512-10.297-5.512-18.336c0-7.646,2.041-13.678,6.119-18.086s9.629-6.611,16.648-6.611c5.338,0,10.678,1.229,16.018,3.686
		l3.777-8.953c-6.148-2.637-12.656-3.961-19.525-3.961c-10.682,0-19.063,2.994-25.15,8.977c-6.09,5.986-9.135,14.271-9.135,24.861
		c0,10.738,2.701,19.055,8.1,24.949c5.398,5.893,13.076,8.838,23.035,8.838c4.23,0,8.166-0.268,11.813-0.809
		c3.643-0.541,7.443-1.453,11.402-2.744v-33.023h-24.203V165.106z"/>
	<rect x="70.764" y="125.784" fill="#FFFFFF" width="10.754" height="65.775"/>
	<path fill="#FFFFFF" d="M46.377,160.067c-2.25-1.742-5.789-3.617-10.619-5.623c-4.289-1.771-7.259-3.197-8.908-4.277
		c-1.648-1.076-2.834-2.227-3.554-3.441c-0.72-1.213-1.078-2.678-1.078-4.385c0-2.49,0.9-4.492,2.698-6.01
		c1.8-1.512,4.438-2.268,7.919-2.268c4.589,0,9.809,1.229,15.656,3.686l3.422-8.771c-6.241-2.76-12.509-4.143-18.809-4.143
		c-6.569,0-11.803,1.578-15.703,4.729c-3.897,3.15-5.848,7.469-5.848,12.955c0,4.381,1.23,8.131,3.689,11.25
		c2.458,3.117,6.688,5.893,12.687,8.32c5.819,2.344,9.658,4.367,11.52,6.076c1.858,1.711,2.789,3.797,2.789,6.252
		c0,2.73-1.013,4.906-3.037,6.525c-2.025,1.619-5.168,2.432-9.427,2.432c-2.909,0-6.052-0.406-9.425-1.217
		c-3.375-0.809-6.563-1.918-9.56-3.33v10.168c4.736,2.309,10.825,3.465,18.265,3.465s13.272-1.664,17.503-4.992
		c4.23-3.33,6.343-7.922,6.343-13.768c0-2.969-0.525-5.553-1.573-7.738C50.276,163.772,48.627,161.805,46.377,160.067z"/>
	<path fill="#FFFFFF" d="M54.738,33.368h-11.7L18.428,99.417h11.337l6.434-18.266h25.153l6.569,18.266h11.426L54.738,33.368z
		 M39.351,71.882l5.939-17.143c1.559-4.376,2.744-8.414,3.553-12.102c0.3,1.2,0.847,3.09,1.644,5.67
		c0.794,2.578,1.415,4.467,1.865,5.667l6.164,17.907H39.351z"/>
	<path fill="#FFFFFF" d="M-22.939,33.637h-20.336v65.779h18.4c11.339,0,20.022-2.873,26.051-8.615
		c6.03-5.744,9.045-14.045,9.045-24.902c0-10.228-2.911-18.161-8.73-23.801C-4.327,36.458-12.471,33.637-22.939,33.637z
		 M-24.875,90.374h-7.647V42.637h9.313c14.727,0,22.09,7.873,22.09,23.621C-1.119,82.337-9.036,90.374-24.875,90.374z"/>
	<path fill="#FFFFFF" d="M-95.306,125.784h-20.337v65.775h18.403c11.336,0,20.02-2.869,26.051-8.615
		c6.027-5.742,9.044-14.043,9.044-24.9c0-10.229-2.913-18.164-8.732-23.803S-84.84,125.784-95.306,125.784z M-97.24,182.518h-7.65
		V134.78h9.314c14.728,0,22.09,7.875,22.09,23.623C-73.486,174.479-81.404,182.518-97.24,182.518z"/>
	<path fill="#FFFFFF" d="M-91.034,33.368l-24.609,66.049h11.337l6.436-18.266h25.15l6.57,18.266h11.426l-24.609-66.049H-91.034z
		 M-94.72,71.882l5.938-17.143c1.559-4.376,2.745-8.414,3.554-12.102c0.3,1.2,0.846,3.09,1.643,5.67
		c0.795,2.578,1.416,4.467,1.865,5.667l6.164,17.907H-94.72z"/>
	<polygon fill="#FFFFFF" points="-44.283,191.559 -7.074,191.559 -7.074,182.428 -33.53,182.428 -33.53,161.776 -8.74,161.776 
		-8.74,152.778 -33.53,152.778 -33.53,134.872 -7.074,134.872 -7.074,125.784 -44.283,125.784 	"/>
	<path fill="#FFFFFF" d="M263.797,163.823c-8.266,0-14.855,6.418-14.855,14.414c0,8.18,6.59,14.598,14.855,14.598
		c8.354,0,14.77-6.418,14.77-14.598C278.567,170.241,272.151,163.823,263.797,163.823z M263.889,189.757
		c-6.506,0-11.256-5.098-11.256-11.52c0-6.328,4.75-11.514,11.164-11.514c6.416,0,11.08,5.186,11.08,11.604
		C274.877,184.659,270.213,189.757,263.889,189.757z"/>
	<path fill="#FFFFFF" d="M216.543,160.247c0,2.428,0.09,5.813,0.27,10.146c0.178,4.334,0.301,6.846,0.359,7.535h-0.27
		l-32.258-52.145h-13.051v65.775h9.766v-34.193c0-4.619-0.209-9.717-0.629-15.295l-0.225-2.928h0.357l32.352,52.416h13.182v-65.775
		h-9.854V160.247z"/>
	<path fill="#FFFFFF" d="M318.574,21.661c-0.195-0.36-0.414-0.688-0.639-1.003c-0.215-0.267-0.457-0.563-0.684-0.787
		c-0.924-0.919-1.805-1.448-2.602-1.863c-1.602-0.818-3.037-1.249-4.432-1.62c-2.777-0.698-5.402-1.063-8.016-1.321
		c-2.609-0.258-5.186-0.41-7.752-0.509c-5.123-0.201-10.199-0.189-15.262-0.096c-5.063,0.098-10.104,0.29-15.141,0.539
		c-4.344,0.203-8.674,0.516-13.008,0.834l0.018-0.67l0.568-25.637l0.369-25.645l0.291-19.508l-8.746,17.332l-9.641,19.106
		l-9.521,19.17l-9.502,19.181c-8.631,0.954-17.25,1.941-25.848,3.097c-9.955,1.294-34.701,2.739-44.611,4.321l44.854-1.72
		c7.805-0.398,15.607-0.83,23.404-1.207l-7.199,14.739l-9.359,19.254l-9.238,19.314c-3.104,6.432-6.092,12.914-9.146,19.369
		c-3.049,6.453-5.99,12.961-8.99,19.439c3.563-6.186,7.186-12.34,10.699-18.559c3.516-6.211,7.09-12.395,10.555-18.633
		l10.453-18.688l7.461-13.528l13.035-23.098c6.715-0.288,13.43-0.586,20.139-0.813l-0.537,18.086
		c-0.283,8.543-0.404,17.089-0.617,25.637l-0.182,7.525l6.92-2.828c4.771-1.951,9.369-3.959,13.998-6.055
		c4.611-2.091,9.193-4.264,13.74-6.516c9.096-4.51,18.029-9.405,26.631-15.099c4.295-2.873,8.525-5.901,12.494-9.518
		c1.008-0.879,1.963-1.866,2.928-2.829c0.457-0.502,0.375-0.38,0.854-0.966c0.361-0.454,0.652-0.886,0.939-1.376
		c0.563-0.97,1.178-2.435,1.049-4.289C319.248,23.321,318.953,22.423,318.574,21.661z M242.08-10.722l-0.768,25.636l-0.053,1.688
		c-5.83,0.485-11.65,1.017-17.463,1.61l18.422-32.653L242.08-10.722z M307.647,27.083c-3.506,3.07-7.512,5.826-11.602,8.439
		c-4.102,2.615-8.369,5.049-12.707,7.378c-4.35,2.318-8.736,4.599-13.182,6.76c-4.457,2.168-8.951,4.266-13.477,6.278
		c-2.217,0.987-4.453,1.962-6.684,2.911c0.184-6.017,0.377-12.032,0.492-18.052l0.416-18.621c4.453-0.112,8.912-0.166,13.361-0.234
		c4.986-0.065,9.969-0.074,14.928,0.012c4.965,0.087,9.92,0.261,14.807,0.626c4.84,0.375,9.791,0.917,14.008,2.039
		c0.611,0.174,1.191,0.37,1.697,0.572C309.039,25.831,308.373,26.47,307.647,27.083z"/>
	<path fill="#FFFFFF" d="M267.141,178.682v-0.178c1.758-0.529,2.988-1.758,2.988-3.342c0-1.406-0.617-2.551-1.406-3.164
		c-1.055-0.617-2.285-1.055-5.012-1.055c-2.375,0-4.219,0.176-5.541,0.438v14.42h3.342v-5.803h1.58c1.848,0,2.729,0.703,2.994,2.287
		c0.438,1.67,0.699,2.988,1.141,3.516h3.605c-0.352-0.527-0.619-1.406-1.055-3.604C269.336,180.262,268.547,179.208,267.141,178.682
		z M263.182,177.624H261.6v-4.129c0.354-0.09,0.971-0.176,1.85-0.176c2.109,0,3.074,0.881,3.074,2.195
		C266.524,177.012,265.031,177.624,263.182,177.624z"/>
</g>
</svg>
